# xmcd CD database file
#
# Track frame offsets:
#	150
#	14743
#	23778
#	33820
#	49927
#	64542
#	75850
#	89372
#	104896
#	120820
#	135813
#	151467
#	168521
#	185684
#	197541
#	210882
#	224982
#	237810
#	255579
#	266508
#	285706
#	296481
#
# Disc length: 4201 seconds
#
# Revision: 0
# Processed by: cddbd v1.4PL0 Copyright (c) Steve Scherf et al.
# Submitted via: Feurio! 1.65.5ß - http://www.feurio.com
#
DISCID=30106716
DTITLE=Various Artist - Word From The Range
DYEAR=1900
DGENRE=
TTITLE0=The Simpson Brothers - Word From The Range
TTITLE1=Wilf Carter - Calgary Roundup
TTITLE2=Quartette - Cowboys and Rodeos
TTITLE3=Ian Tyson - Cowboy Pride
TTITLE4=Dick Damron - The Last Of The Rodeo Riders
TTITLE5=Nathan Tinkham - Curly Bob
TTITLE6=The Rhythm Pals - Cool Water
TTITLE7=Cindy Church - Cowgirl's Lullaby
TTITLE8=Ian Tyson - Half A Mile Of Hell
TTITLE9=Gary Fjellgaard - Dance With This Old Cowboy
TTITLE10=Tom Phillips - Like A Rodeo
TTITLE11=Diamond Joe White - High Rider
TTITLE12=Colleen Peterson - Code Of The West
TTITLE13=Tim Williams - My Heart Can't Take Another Rodeo
TTITLE14=Great Western Orchestra - Wind In The Wire
TTITLE15=The Simpson Brothers and Cindy Church - Red River Valley
TTITLE16=Wilf Carter - The Fate Of Old Strawberry Roan
TTITLE17=Gary Fjellgaard - Drifting Cowboy
TTITLE18=The Rhythm Pals - Tumbling Tumbleweeds
TTITLE19=Quartette - Neon Cowboy
TTITLE20=Dick Damron - The Wilf Carter Song
TTITLE21=Ian Tyson - Summer Wages
EXTD=
EXTT0=
EXTT1=
EXTT2=
EXTT3=
EXTT4=
EXTT5=
EXTT6=
EXTT7=
EXTT8=
EXTT9=
EXTT10=
EXTT11=
EXTT12=
EXTT13=
EXTT14=
EXTT15=
EXTT16=
EXTT17=
EXTT18=
EXTT19=
EXTT20=
EXTT21=
PLAYORDER=
